<svg width="138" height="62" viewBox="0 0 138 62" fill="none" xmlns="http://www.w3.org/2000/svg">
<path d="M41.6347 25.2662H42.5718V22.3211C42.5718 21.6517 42.6276 21.0326 42.7392 20.4636C42.8619 19.8947 43.1073 19.4373 43.4755 19.0914C43.8436 18.7456 44.3902 18.5727 45.1154 18.5727C45.8405 18.5727 46.3816 18.7456 46.7386 19.0914C47.0955 19.4373 47.3298 19.8947 47.4414 20.4636C47.5641 21.0214 47.6254 21.6406 47.6254 22.3211V25.2662H48.9976C49.6893 25.2662 50.2638 25.3778 50.7212 25.6009C51.1786 25.824 51.4073 26.3818 51.4073 27.2743C51.4073 28.1221 51.1786 28.6687 50.7212 28.9142C50.2638 29.1596 49.6893 29.2823 48.9976 29.2823H47.6254V35.1391C47.6254 35.6746 47.7035 36.1655 47.8597 36.6117C48.0271 37.058 48.451 37.2811 49.1315 37.2811C49.9459 37.2811 50.526 37.4261 50.8718 37.7161C51.2288 38.0062 51.4073 38.5752 51.4073 39.423C51.4073 40.3155 51.0224 40.9681 50.2526 41.3808C49.494 41.7936 48.6183 42 47.6254 42C46.8334 42 46.1584 41.9163 45.6007 41.749C44.5185 41.4366 43.7544 40.8286 43.3081 39.925C43.085 39.4899 42.9232 39.0102 42.8228 38.4859C42.7113 37.9504 42.6388 37.3759 42.6053 36.7623C42.583 36.1376 42.5718 35.485 42.5718 34.8045V29.2823H41.6347C40.9542 29.2823 40.3853 29.1596 39.9279 28.9142C39.4817 28.6687 39.2585 28.1221 39.2585 27.2743C39.2585 26.3818 39.4817 25.824 39.9279 25.6009C40.3853 25.3778 40.9542 25.2662 41.6347 25.2662ZM54.7875 36.0428V29.0815C54.7875 28.3899 54.8489 27.7595 54.9716 27.1906C55.1054 26.6105 55.3565 26.1475 55.7246 25.8017C56.1039 25.4447 56.6617 25.2662 57.398 25.2662C58.1343 25.2662 58.6809 25.4391 59.0379 25.785C59.406 26.1308 59.6459 26.5938 59.7574 27.1739C59.8802 27.754 59.9415 28.3899 59.9415 29.0815V35.6077C59.9415 36.277 60.0252 36.8571 60.1925 37.348C60.3599 37.8389 60.767 38.0843 61.4141 38.0843C61.8603 38.0843 62.2229 37.9337 62.5018 37.6325C62.7918 37.3313 63.0205 36.9185 63.1879 36.3942C63.344 35.8699 63.45 35.2563 63.5058 34.5535C63.5616 33.8395 63.5895 33.0753 63.5895 32.2609V29.0815C63.5895 28.3899 63.6508 27.7595 63.7736 27.1906C63.9074 26.6105 64.1584 26.1475 64.5266 25.8017C64.9059 25.4447 65.4637 25.2662 66.1999 25.2662C66.9362 25.2662 67.4829 25.4391 67.8399 25.785C68.208 26.1308 68.4479 26.5938 68.5594 27.1739C68.6821 27.754 68.7435 28.3899 68.7435 29.0815V38.2182C68.7435 38.9098 68.6933 39.5457 68.5929 40.1258C68.5036 40.6948 68.2805 41.1522 67.9235 41.498C67.5665 41.8327 66.992 42 66.1999 42C65.4748 42 64.9226 41.8606 64.5433 41.5817C64.1752 41.2916 63.9242 40.9346 63.7903 40.5107C63.6564 40.0756 63.5895 39.635 63.5895 39.1887C63.3887 39.925 62.9815 40.5776 62.3679 41.1466C61.7543 41.7155 60.9455 42 59.9415 42C59.3279 42 58.7144 41.8996 58.1008 41.6988C57.4872 41.498 56.935 41.1633 56.4442 40.6948C55.9533 40.2262 55.5517 39.6126 55.2393 38.854C54.9381 38.0954 54.7875 37.1584 54.7875 36.0428ZM74.1987 25.2662H75.1358V22.3211C75.1358 21.6517 75.1916 21.0326 75.3031 20.4636C75.4258 19.8947 75.6713 19.4373 76.0394 19.0914C76.4076 18.7456 76.9542 18.5727 77.6793 18.5727C78.4045 18.5727 78.9455 18.7456 79.3025 19.0914C79.6595 19.4373 79.8938 19.8947 80.0053 20.4636C80.128 21.0214 80.1894 21.6406 80.1894 22.3211V25.2662H81.5616C82.2532 25.2662 82.8278 25.3778 83.2852 25.6009C83.7425 25.824 83.9712 26.3818 83.9712 27.2743C83.9712 28.1221 83.7425 28.6687 83.2852 28.9142C82.8278 29.1596 82.2532 29.2823 81.5616 29.2823H80.1894V35.1391C80.1894 35.6746 80.2675 36.1655 80.4237 36.6117C80.591 37.058 81.0149 37.2811 81.6954 37.2811C82.5098 37.2811 83.0899 37.4261 83.4358 37.7161C83.7927 38.0062 83.9712 38.5752 83.9712 39.423C83.9712 40.3155 83.5864 40.9681 82.8166 41.3808C82.058 41.7936 81.1823 42 80.1894 42C79.3973 42 78.7224 41.9163 78.1646 41.749C77.0825 41.4366 76.3183 40.8286 75.8721 39.925C75.649 39.4899 75.4872 39.0102 75.3868 38.4859C75.2752 37.9504 75.2027 37.3759 75.1693 36.7623C75.147 36.1376 75.1358 35.485 75.1358 34.8045V29.2823H74.1987C73.5182 29.2823 72.9492 29.1596 72.4919 28.9142C72.0456 28.6687 71.8225 28.1221 71.8225 27.2743C71.8225 26.3818 72.0456 25.824 72.4919 25.6009C72.9492 25.3778 73.5182 25.2662 74.1987 25.2662ZM86.6821 35.7081V31.5581C86.6821 30.5206 86.8216 29.6505 87.1005 28.9476C87.3793 28.2337 87.7363 27.6368 88.1714 27.1571C88.6177 26.6774 89.1141 26.3037 89.6607 26.036C90.185 25.7682 90.715 25.5674 91.2504 25.4335C91.7748 25.2997 92.26 25.216 92.7063 25.1825C93.1637 25.1491 93.5207 25.1323 93.7772 25.1323C94.0338 25.1323 94.3852 25.1491 94.8315 25.1825C95.2777 25.216 95.7574 25.2997 96.2706 25.4335C96.7837 25.5674 97.2969 25.7682 97.8101 26.036C98.3344 26.3037 98.803 26.6774 99.2157 27.1571C99.6396 27.6368 99.9799 28.2337 100.236 28.9476C100.504 29.6616 100.638 30.5318 100.638 31.5581V35.7081C100.638 36.7233 100.504 37.5934 100.236 38.3186C99.9687 39.0325 99.6285 39.6294 99.2157 40.1091C98.803 40.5888 98.3344 40.9625 97.8101 41.2302C97.2969 41.498 96.7837 41.6988 96.2706 41.8327C95.7574 41.9665 95.2777 42.0502 94.8315 42.0837C94.3852 42.1171 94.0338 42.1339 93.7772 42.1339C93.5318 42.1339 93.1804 42.1171 92.723 42.0837C92.2768 42.0502 91.7859 41.9665 91.2504 41.8327C90.7261 41.6988 90.1962 41.498 89.6607 41.2302C89.1141 40.9625 88.6232 40.5888 88.1881 40.1091C87.7419 39.6294 87.3793 39.0325 87.1005 38.3186C86.8216 37.6046 86.6821 36.7344 86.6821 35.7081ZM91.8361 30.8218V36.8795C91.8584 37.2141 91.9365 37.4986 92.0704 37.7329C92.1931 37.956 92.3828 38.1568 92.6393 38.3353C92.9071 38.5026 93.2864 38.5863 93.7772 38.5863C94.2458 38.5863 94.6028 38.5026 94.8482 38.3353C95.1048 38.1568 95.2944 37.956 95.4171 37.7329C95.5622 37.4651 95.6403 37.1807 95.6514 36.8795V30.8218C95.6403 30.5095 95.5622 30.2027 95.4171 29.9015C95.2944 29.6784 95.1048 29.472 94.8482 29.2823C94.6028 29.0815 94.2458 28.9811 93.7772 28.9811C93.2864 28.9811 92.9071 29.0815 92.6393 29.2823C92.3828 29.472 92.1931 29.6784 92.0704 29.9015C91.9365 30.1581 91.8584 30.4648 91.8361 30.8218ZM104.152 44.8782V29.048C104.152 28.3564 104.202 27.7261 104.303 27.1571C104.403 26.577 104.626 26.1196 104.972 25.785C105.329 25.4391 105.892 25.2662 106.662 25.2662C107.387 25.2662 107.934 25.4112 108.302 25.7013C108.67 25.9802 108.916 26.3372 109.038 26.7723C109.172 27.1962 109.239 27.6313 109.239 28.0775C109.462 27.3412 109.864 26.6886 110.444 26.1196C111.035 25.5507 111.839 25.2662 112.854 25.2662C113.467 25.2662 114.081 25.3666 114.694 25.5674C115.308 25.7682 115.86 26.1029 116.351 26.5714C116.842 27.04 117.238 27.6536 117.539 28.4122C117.852 29.1596 118.008 30.0855 118.008 31.19V36.0428C118.008 37.1584 117.852 38.0954 117.539 38.854C117.238 39.6015 116.842 40.2039 116.351 40.6613C115.86 41.1298 115.308 41.4645 114.694 41.6653C114.081 41.8661 113.467 41.9665 112.854 41.9665C111.839 41.9665 111.035 41.6876 110.444 41.1298C109.864 40.5609 109.462 39.9027 109.239 39.1553V44.8782C109.239 45.581 109.178 46.2169 109.055 46.7859C108.944 47.366 108.704 47.8289 108.336 48.1748C107.967 48.5206 107.41 48.6935 106.662 48.6935C105.937 48.6935 105.396 48.5206 105.039 48.1748C104.682 47.8289 104.442 47.366 104.32 46.7859C104.208 46.2058 104.152 45.5699 104.152 44.8782ZM112.854 35.6746V31.6251C112.854 30.9669 112.776 30.3979 112.619 29.9182C112.463 29.4273 112.051 29.1819 111.381 29.1819C110.556 29.1819 109.987 29.578 109.674 30.37C109.518 30.7828 109.407 31.3015 109.34 31.9263C109.284 32.551 109.25 33.2873 109.239 34.1351C109.239 34.6706 109.301 35.2451 109.423 35.8587C109.546 36.4611 109.764 36.9799 110.076 37.4149C110.388 37.8389 110.823 38.0508 111.381 38.0508C112.051 38.0508 112.463 37.811 112.619 37.3313C112.776 36.8516 112.854 36.2994 112.854 35.6746ZM134.976 29.0815V38.2182C134.976 38.9098 134.926 39.5457 134.825 40.1258C134.725 40.6948 134.496 41.1522 134.139 41.498C133.793 41.8327 133.236 42 132.466 42C131.741 42 131.194 41.8606 130.826 41.5817C130.458 41.2916 130.207 40.9346 130.073 40.5107C129.95 40.0756 129.889 39.635 129.889 39.1887C129.666 39.925 129.264 40.5776 128.684 41.1466C128.104 41.7155 127.301 42 126.274 42C125.661 42 125.047 41.8996 124.434 41.6988C123.82 41.498 123.268 41.1633 122.777 40.6948C122.286 40.2262 121.884 39.6182 121.572 38.8708C121.271 38.1122 121.12 37.1807 121.12 36.0762V31.2234C121.12 30.1079 121.271 29.1763 121.572 28.4289C121.884 27.6703 122.286 27.0567 122.777 26.5882C123.268 26.1308 123.82 25.8017 124.434 25.6009C125.047 25.4001 125.661 25.2997 126.274 25.2997C127.301 25.2997 128.104 25.5786 128.684 26.1364C129.264 26.6942 129.666 27.3524 129.889 28.111C129.889 27.0846 130.14 26.3539 130.642 25.9188C131.144 25.4837 131.752 25.2662 132.466 25.2662C133.191 25.2662 133.732 25.4391 134.089 25.785C134.446 26.1308 134.68 26.5938 134.792 27.1739C134.914 27.754 134.976 28.3899 134.976 29.0815ZM126.274 31.5916V35.6412C126.274 36.2882 126.352 36.8571 126.509 37.348C126.665 37.8389 127.077 38.0843 127.747 38.0843C128.572 38.0843 129.141 37.6827 129.454 36.8795C129.61 36.4778 129.716 35.9703 129.772 35.3567C129.839 34.732 129.878 33.9901 129.889 33.1311C129.889 32.6068 129.827 32.0434 129.705 31.441C129.582 30.8274 129.364 30.3031 129.052 29.868C128.74 29.4329 128.305 29.2154 127.747 29.2154C127.077 29.2154 126.665 29.4552 126.509 29.9349C126.352 30.4146 126.274 30.9669 126.274 31.5916Z" fill="#1E1515"/>
<g clip-path="url(#clip0_4656_1947)">
<path d="M29.5043 16.159C29.4059 16.1777 29.319 16.2346 29.2626 16.3174C29.2063 16.4001 29.1851 16.5019 29.2037 16.6003L30.8452 25.2546C30.8639 25.353 30.9208 25.4399 31.0036 25.4963C31.0863 25.5527 31.1881 25.5738 31.2865 25.5552C31.3848 25.5365 31.4718 25.4796 31.5281 25.3968C31.5845 25.3141 31.6057 25.2123 31.587 25.1139L29.9455 16.4596C29.9269 16.3612 29.8699 16.2743 29.7872 16.2179C29.7044 16.1615 29.6027 16.1403 29.5043 16.159ZM2.49882 21.6653L4.14028 30.3197C4.15893 30.4181 4.2159 30.505 4.29865 30.5614C4.38141 30.6177 4.48316 30.6389 4.58153 30.6203C4.6799 30.6016 4.76682 30.5446 4.82319 30.4619C4.87955 30.3791 4.90074 30.2774 4.88208 30.179L3.24062 21.5246C3.22196 21.4263 3.16499 21.3393 3.08224 21.283C2.99949 21.2266 2.89774 21.2054 2.79937 21.2241C2.701 21.2427 2.61407 21.2997 2.55771 21.3825C2.50134 21.4652 2.48016 21.567 2.49882 21.6653Z" fill="#EC5C2A"/>
<path d="M30.0436 19.0032C31.2044 18.783 31.9669 17.6635 31.7467 16.5027C31.5266 15.342 30.4071 14.5794 29.2463 14.7996C28.0855 15.0198 27.323 16.1392 27.5432 17.3C27.7633 18.4608 28.8828 19.2233 30.0436 19.0032Z" fill="#EC5C2A"/>
<path d="M16.1985 18.9389C7.64749 20.5608 1.97175 28.3419 3.58221 36.8328L4.65352 42.4811C4.87921 43.6711 5.56837 44.7226 6.56937 45.4044C7.57038 46.0863 8.80124 46.3425 9.99118 46.1168L16.8818 44.8099C16.9878 44.789 17.0977 44.8072 17.1913 44.861C17.285 44.9148 17.3561 45.0006 17.3915 45.1026C17.6078 45.8382 17.5957 46.6221 17.3568 47.3506C17.3004 47.5567 17.3062 47.7749 17.3737 47.9777C17.4411 48.1805 17.567 48.3588 17.7356 48.4901C17.9042 48.6214 18.1079 48.6998 18.3211 48.7155C18.5342 48.7313 18.7472 48.6835 18.9332 48.5783C20.7436 47.5418 22.9181 45.9082 23.9916 43.654C24.0217 43.5891 24.0667 43.5323 24.123 43.4881C24.1793 43.444 24.2452 43.4138 24.3154 43.4L31.9263 41.9564C33.1163 41.7307 34.1678 41.0416 34.8496 40.0406C35.5315 39.0396 35.7877 37.8087 35.562 36.6188L34.4907 30.9704C32.8815 22.4793 24.7495 17.3171 16.1985 18.9389Z" fill="#EC5C2A"/>
<path d="M10.3354 42.7211C9.74514 42.833 9.13463 42.7059 8.63813 42.3677C8.14163 42.0296 7.7998 41.508 7.68786 40.9178L6.77333 36.096C5.40698 29.4972 10.2492 23.2857 16.7854 22.0293C23.3416 20.7689 30.1061 24.7895 31.2528 31.4531L32.1674 36.2748C32.2793 36.865 32.1522 37.4755 31.814 37.972C31.4758 38.4685 30.9543 38.8103 30.3641 38.9223L10.3354 42.7211Z" fill="#EC5C2A"/>
<path d="M3.33888 24.0676C4.49966 23.8474 5.26218 22.728 5.04201 21.5672C4.82185 20.4064 3.70238 19.6439 2.5416 19.8641C1.38082 20.0842 0.618297 21.2037 0.83846 22.3645C1.05862 23.5253 2.1781 24.2878 3.33888 24.0676Z" fill="#EC5C2A"/>
<path d="M12.526 33.3407C13.5502 33.1464 14.223 32.1586 14.0288 31.1344C13.8345 30.1102 12.8467 29.4374 11.8225 29.6317C10.7983 29.8259 10.1255 30.8137 10.3198 31.8379C10.514 32.8621 11.5018 33.5349 12.526 33.3407Z" fill="white"/>
<path d="M24.8905 30.995C25.9147 30.8007 26.5875 29.8129 26.3933 28.7887C26.199 27.7645 25.2112 27.0917 24.187 27.286C23.1628 27.4802 22.49 28.468 22.6843 29.4922C22.8785 30.5164 23.8663 31.1892 24.8905 30.995Z" fill="white"/>
<path d="M15.6243 34.5458C15.5143 34.5666 15.4103 34.6117 15.3198 34.6777C15.2293 34.7437 15.1547 34.829 15.1013 34.9274C15.0479 35.0258 15.017 35.1349 15.0109 35.2467C15.0048 35.3585 15.0237 35.4702 15.0661 35.5738C15.4495 36.4816 16.1324 37.2305 17.0009 37.6959C17.8695 38.1613 18.8713 38.3149 19.8394 38.1313C20.8075 37.9477 21.6834 37.4379 22.3213 36.6868C22.9591 35.9357 23.3203 34.9887 23.3447 34.0037C23.3462 33.8917 23.3229 33.7808 23.2763 33.679C23.2297 33.5772 23.161 33.487 23.0753 33.415C22.9895 33.343 22.8888 33.2909 22.7805 33.2626C22.6722 33.2343 22.5589 33.2305 22.4489 33.2514L15.6243 34.5458Z" fill="white"/>
<path d="M22.6903 36.1823C22.3755 36.6863 21.9597 37.1197 21.4692 37.4552C20.9786 37.7907 20.424 38.021 19.8401 38.1318C19.2563 38.2425 18.6558 38.2312 18.0765 38.0986C17.4972 37.966 16.9516 37.715 16.474 37.3613C16.7998 36.8698 17.2206 36.4485 17.7117 36.1222C18.2028 35.7959 18.7543 35.5711 19.3336 35.4613C19.9129 35.3514 20.5084 35.3586 21.0849 35.4824C21.6614 35.6062 22.2073 35.8442 22.6903 36.1823Z" fill="white"/>
</g>
<defs>
<clipPath id="clip0_4656_1947">
<rect width="32.2146" height="32.2146" fill="white" transform="translate(0 19.9619) rotate(-10.7396)"/>
</clipPath>
</defs>
</svg>
